<svg width="52" height="52" viewBox="0 0 52 52" fill="none" xmlns="http://www.w3.org/2000/svg">
<g id="eyes-43">
<g id="Group 146">
<path id="Vector" d="M8 25.6798C8 30.8798 14.15 35.0998 21.75 35.0998C29.35 35.0998 35.5 30.8798 35.5 25.6798C35.5 20.4798 29.34 16.2598 21.75 16.2598C14.16 16.2598 8 20.4798 8 25.6798Z" fill="white"/>
<path id="Vector_2" d="M13.02 25.1599C12.9823 26.8255 13.4413 28.4647 14.3387 29.8685C15.236 31.2724 16.531 32.3772 18.0586 33.0423C19.5862 33.7074 21.2772 33.9026 22.9162 33.6031C24.5551 33.3036 26.0678 32.5228 27.2614 31.3604C28.455 30.198 29.2755 28.7065 29.6183 27.0761C29.9611 25.4456 29.8107 23.75 29.1863 22.2054C28.5619 20.6607 27.4917 19.3369 26.1121 18.4027C24.7325 17.4685 23.1061 16.9662 21.44 16.9599C20.3483 16.944 19.2642 17.1437 18.2499 17.5474C17.2355 17.9512 16.3107 18.5511 15.5286 19.3128C14.7464 20.0745 14.1222 20.9831 13.6918 21.9864C13.2613 22.9898 13.033 24.0682 13.02 25.1599Z" fill="#6C7070"/>
<path id="Vector_3" d="M17.2099 25.1598C17.1901 25.9944 17.4194 26.8161 17.8686 27.5198C18.3179 28.2235 18.9667 28.7773 19.7322 29.1106C20.4976 29.4439 21.3451 29.5415 22.1663 29.3909C22.9875 29.2403 23.7452 28.8484 24.3426 28.2652C24.94 27.682 25.3501 26.934 25.5204 26.1166C25.6907 25.2993 25.6136 24.4497 25.2989 23.6765C24.9841 22.9032 24.4461 22.2412 23.7534 21.7751C23.0607 21.3091 22.2448 21.06 21.4099 21.0598C20.31 21.0491 19.2507 21.4744 18.4636 22.2428C17.6765 23.0111 17.2257 24.0599 17.2099 25.1598Z" fill="#0010BF"/>
<path id="Vector_4" d="M8 25.6798C8 30.8798 14.15 35.0998 21.75 35.0998C29.35 35.0998 35.5 30.8798 35.5 25.6798C35.5 20.4798 29.34 16.2598 21.75 16.2598C14.16 16.2598 8 20.4798 8 25.6798Z" stroke="#0010BF" stroke-width="3.28"/>
<path id="Vector_5" d="M8.18994 28.24C8.18994 24.57 14.1899 21.61 21.5299 21.61C28.8699 21.61 34.8799 24.61 34.8799 28.24V22.15L24.2799 16L13.6399 18.55L8.36994 24.14M43.4999 24.76L36.2399 26.64L35.6499 23.41L43.1099 22.61L43.4999 24.76ZM41.6999 17.93L35.5799 22.27L33.8799 19.46L40.5699 16.06L41.6999 17.93Z" fill="#0010BF"/>
</g>
</g>
</svg>
