<svg width="52" height="52" viewBox="0 0 52 52" fill="none" xmlns="http://www.w3.org/2000/svg">
<g id="eyes-23">
<g id="Group 126">
<path id="Vector" d="M42.46 19C40.9367 22.9356 38.2816 26.3318 34.83 28.76C28.47 32.89 14.73 31.89 14.73 31.89C12.11 31.89 10 30.04 10 27.76C10.0822 26.5853 10.6256 25.4907 11.5117 24.7151C12.3978 23.9395 13.5547 23.5458 14.73 23.62C19.8988 23.7157 25.0666 23.3812 30.18 22.62C34.3835 21.8247 38.4972 20.612 42.46 19Z" fill="white"/>
<path id="Vector_2" d="M16.97 27.5099C16.97 28.5539 17.2801 29.5744 17.861 30.4419C18.4418 31.3094 19.2673 31.9848 20.2326 32.3825C21.1979 32.7801 22.2595 32.8821 23.2829 32.6755C24.3063 32.4689 25.2452 31.963 25.9806 31.222C26.716 30.4809 27.2147 29.5382 27.4135 28.5133C27.6123 27.4884 27.5023 26.4275 27.0972 25.4653C26.6922 24.503 26.0105 23.6828 25.1386 23.1085C24.2668 22.5343 23.2439 22.232 22.2 22.2399C20.8092 22.2505 19.479 22.8103 18.4993 23.7975C17.5197 24.7847 16.9699 26.1191 16.97 27.5099Z" fill="#6C7070"/>
<path id="Vector_3" d="M19.6099 27.5101C19.6061 28.0352 19.7588 28.5495 20.0488 28.9873C20.3387 29.4251 20.7526 29.7665 21.2376 29.9679C21.7225 30.1692 22.2565 30.2214 22.7713 30.1176C23.2861 30.0139 23.7582 29.7591 24.1273 29.3856C24.4965 29.0122 24.7459 28.5372 24.8437 28.0212C24.9415 27.5053 24.8832 26.972 24.6763 26.4894C24.4693 26.0067 24.1232 25.5968 23.6821 25.3119C23.241 25.027 22.7249 24.8802 22.1999 24.8901C21.5111 24.9006 20.8539 25.1809 20.3696 25.6709C19.8852 26.1608 19.6125 26.8212 19.6099 27.5101Z" fill="#0010BF"/>
<path id="Vector_4" d="M42.46 19C40.9367 22.9356 38.2816 26.3318 34.83 28.76C28.47 32.89 14.73 31.89 14.73 31.89C12.11 31.89 10 30.04 10 27.76C10.0822 26.5853 10.6256 25.4907 11.5117 24.7151C12.3978 23.9395 13.5547 23.5458 14.73 23.62C19.8988 23.7157 25.0666 23.3812 30.18 22.62C34.3835 21.8247 38.4972 20.612 42.46 19Z" stroke="#0010BF" stroke-width="3.28"/>
</g>
</g>
</svg>
