<svg width="52" height="52" viewBox="0 0 52 52" fill="none" xmlns="http://www.w3.org/2000/svg">
<g id="hair-83">
<g id="83">
<path id="Vector" d="M26.0001 5.10447L17.0961 4.26807L13.2921 7.35327L9.41731 9.90207L8.22931 13.6533L5.00491 16.7445L6.26731 20.7525L4.19971 24.5529L6.36931 29.3529L5.43931 32.7525L9.77851 36.9525L19.7337 31.2477L26.0001 35.8257M26.0001 5.10447L34.9041 4.26807L38.7081 7.35327L42.5841 9.90207L43.7709 13.6533L46.9953 16.7445L45.7341 20.7525L47.8017 24.5529L45.6309 29.3529L46.5621 32.7525L42.2217 36.9525L32.2677 31.2477L26.0001 35.8257" fill="#5F5F5F"/>
<path id="Vector_2" d="M26.0001 8.70459C17.5545 8.70459 12.3681 16.2934 13.0065 26.7106C13.5633 35.8066 18.8541 42.211 26.0001 42.211C33.1461 42.211 38.4381 35.8066 38.9949 26.7106C39.6321 16.2934 34.4469 8.70459 26.0001 8.70459Z" fill="white" stroke="#BFBFBF" stroke-width="2.97"/>
<path id="Vector_3" d="M25.9998 5.36377L16.1598 8.33377L10.7778 15.9442L9.75781 26.8966L13.5978 24.2566L14.5974 19.5574L19.7982 16.057C20.849 14.7599 21.7544 13.3514 22.4982 11.857L25.9998 11.9542M25.9998 5.36377L35.8398 8.33377L41.2242 15.9442L42.243 26.8966L38.403 24.2566L37.3998 19.5538L32.199 16.0534C31.1482 14.7563 30.2428 13.3478 29.499 11.8534L25.9998 11.9542" fill="#5F5F5F"/>
</g>
</g>
</svg>
