<svg width="52" height="52" viewBox="0 0 52 52" fill="none" xmlns="http://www.w3.org/2000/svg">
<g id="hair-39">
<g id="39">
<path id="Vector" d="M25.9997 8.64673C17.5529 8.64673 12.3677 16.2355 13.0049 26.6527C13.5617 35.7475 18.8525 42.1519 25.9997 42.1519C33.1469 42.1519 38.4365 35.7475 38.9933 26.6527C39.6317 16.2355 34.4453 8.64673 25.9997 8.64673Z" fill="white" stroke="#BFBFBF" stroke-width="2.97"/>
<path id="Vector_2" d="M38.2519 8.0794C37.4696 7.40064 36.5558 6.89042 35.5675 6.5806C34.9387 6.3406 32.6203 8.8786 32.6203 8.8786C32.6203 8.8786 31.9243 5.4934 31.0951 5.335C29.4159 5.01138 27.71 4.84626 25.9999 4.8418C20.4463 4.8538 14.7571 6.8986 13.7479 8.0818C11.7079 10.471 10.5079 19.3618 11.2411 23.5126H13.5979C13.7765 21.6798 14.0537 19.858 14.4283 18.055C15.4183 15.055 19.6099 12.517 25.9987 12.517C32.3875 12.517 36.5791 15.0538 37.5691 18.055C37.9437 19.858 38.2209 21.6798 38.3995 23.5126H40.7599C41.4967 19.363 40.2919 10.4686 38.2519 8.0794Z" fill="#5F5F5F"/>
</g>
</g>
</svg>
