<svg width="52" height="52" viewBox="0 0 52 52" fill="none" xmlns="http://www.w3.org/2000/svg">
<g id="hair-59">
<g id="59">
<path id="Vector" d="M25.9995 8.64697C17.5539 8.64697 12.3687 16.2358 13.0059 26.653C13.5627 35.749 18.8535 42.1522 25.9995 42.1522C33.1455 42.1522 38.4363 35.749 38.9931 26.653C39.6315 16.2358 34.4463 8.64697 25.9995 8.64697Z" fill="white" stroke="#BFBFBF" stroke-width="2.97"/>
<path id="Vector_2" d="M25.9995 3.82178C17.5119 3.82178 10.6299 12.6382 10.6299 22.5526V31.1086H13.2795C13.2795 31.1086 10.9599 15.979 20.7051 10.9678C20.7051 10.9678 21.5451 12.7306 25.9947 12.7306C30.4443 12.7306 31.2855 10.9678 31.2855 10.9678C41.0355 15.979 38.7195 31.1086 38.7195 31.1086H41.3739V22.5526C41.3703 12.6382 34.4871 3.82178 25.9995 3.82178Z" fill="#5F5F5F"/>
</g>
</g>
</svg>
